<?xml version="1.0" standalone="no"?>
<!DOCTYPE svg PUBLIC "-//W3C//DTD SVG 20010904//EN"
 "http://www.w3.org/TR/2001/REC-SVG-20010904/DTD/svg10.dtd">
<svg version="1.0" xmlns="http://www.w3.org/2000/svg"
 width="305.000000pt" height="305.000000pt" viewBox="0 0 305.000000 305.000000"
 preserveAspectRatio="xMidYMid meet">
<metadata>
Created by potrace 1.11, written by Peter Selinger 2001-2013
</metadata>
<g transform="translate(0.000000,305.000000) scale(0.100000,-0.100000)"
fill="#000000" stroke="none">
<path d="M1873 2390 c-82 -22 -140 -49 -167 -79 -15 -17 -31 -21 -80 -21 -70
0 -207 -16 -288 -35 -51 -11 -58 -11 -75 6 -30 31 -181 88 -249 95 -98 10
-110 4 -150 -79 -20 -42 -34 -87 -34 -109 0 -32 -7 -44 -46 -80 -57 -52 -108
-126 -163 -235 -74 -148 -108 -361 -98 -620 3 -87 10 -174 15 -194 l9 -37 -56
5 c-51 5 -58 3 -81 -21 -17 -19 -24 -38 -25 -66 0 -35 -3 -39 -30 -44 -47 -9
-74 -33 -81 -74 -4 -20 -14 -52 -21 -71 -18 -42 -10 -89 19 -126 23 -29 192
-114 281 -140 29 -9 113 -25 187 -38 125 -20 167 -22 585 -22 506 0 589 7 845
71 146 36 301 105 362 162 39 36 53 83 37 129 -16 48 -98 135 -149 158 -22 10
-40 21 -40 25 0 4 11 27 24 51 13 24 37 82 53 129 26 79 28 96 28 245 0 126
-3 166 -16 191 -15 29 -14 32 8 64 18 27 23 48 23 99 0 55 -5 71 -32 114 -17
27 -48 59 -68 72 -82 52 -283 249 -286 282 -4 35 -60 122 -110 171 -25 23 -48
42 -52 41 -4 0 -39 -9 -79 -19z"/>
</g>
</svg>
